HIERARCHY
ROOT Hips
{
	OFFSET 0.00000 0.00000 0.00000
	CHANNELS 6 Xposition Yposition Zposition Zrotation Yrotation Xrotation 
	JOINT LHipJoint
	{
		OFFSET 0 0 0
		CHANNELS 3 Zrotation Yrotation Xrotation
		JOINT LeftHip
		{
			OFFSET 1.75344 -1.53157 0.77399
			CHANNELS 3 Zrotation Yrotation Xrotation
			JOINT LeftKnee
			{
				OFFSET 2.25415 -6.19323 0.00000
				CHANNELS 3 Zrotation Yrotation Xrotation
				JOINT LeftAnkle
				{
					OFFSET 2.30342 -6.32861 0.00000
					CHANNELS 3 Zrotation Yrotation Xrotation
					JOINT LeftToe
					{
						OFFSET 0.10958 -0.30108 1.49206
						CHANNELS 3 Zrotation Yrotation Xrotation
						End Site
						{
							OFFSET 0.00000 -0.00000 0.77783
						}
					}
				}
			}
		}
	}
	JOINT RHipJoint
	{
		OFFSET 0 0 0
		CHANNELS 3 Zrotation Yrotation Xrotation
		JOINT RightHip
		{
			OFFSET -1.81912 -1.53156 0.77399
			CHANNELS 3 Zrotation Yrotation Xrotation
			JOINT RightKnee
			{
				OFFSET -2.22882 -6.12365 0.00000
				CHANNELS 3 Zrotation Yrotation Xrotation
				JOINT RightAnkle
				{
					OFFSET -2.21943 -6.09785 0.00000
					CHANNELS 3 Zrotation Yrotation Xrotation
					JOINT RightToe
					{
						OFFSET -0.18931 -0.52012 1.59379
						CHANNELS 3 Zrotation Yrotation Xrotation
						End Site
						{
							OFFSET -0.00000 -0.00000 0.84686
						}
					}
				}
			}
		}
	}
	JOINT lowerback
	{
		OFFSET 0 0 0
		CHANNELS 3 Zrotation Yrotation Xrotation
		JOINT Chest
		{
			OFFSET -0.00200 1.66634 -0.14248
			CHANNELS 3 Zrotation Yrotation Xrotation
			JOINT Chest2
			{
				OFFSET -0.00875 1.64542 0.09514
				CHANNELS 3 Zrotation Yrotation Xrotation
				JOINT lowerneck
				{
					OFFSET 0 0 0
					CHANNELS 3 Zrotation Yrotation Xrotation
					JOINT Neck
					{
						OFFSET 0.02257 1.59605 0.00839
						CHANNELS 3 Zrotation Yrotation Xrotation
						JOINT Head
						{
							OFFSET -0.10214 1.57530 -0.23335
							CHANNELS 3 Zrotation Yrotation Xrotation
							End Site
							{
								OFFSET -0.03588 1.60717 -0.08062
							}
						}
					}
				}
				JOINT LeftCollar
				{
					OFFSET 0 0 0
					CHANNELS 3 Zrotation Yrotation Xrotation
					JOINT LeftShoulder
					{
						OFFSET 2.54983 1.10186 0.40078
CHANNELS 3 Zrotation Xrotation Yrotation
						JOINT LeftElbow
						{
OFFSET 0 -4.288400 0.000000
CHANNELS 3 Zrotation Xrotation Yrotation
							JOINT LeftWrist
							{
OFFSET 0 -3.065520 -0.000000
CHANNELS 3 Zrotation Xrotation Yrotation
								JOINT lhand
								{
									OFFSET 0 0 0
CHANNELS 3 Zrotation Xrotation Yrotation
									JOINT LFingers
									{
OFFSET 0 -0.753040 0.000000
CHANNELS 3 Zrotation Xrotation Yrotation
										End Site
										{
OFFSET 0 -0.607120 0.000000
										}
									}
								}
								JOINT LThumb
								{
OFFSET 0 0.000000 0.000000
CHANNELS 3 Zrotation Xrotation Yrotation
									End Site
									{
OFFSET 0 -0.616390 0.616390
									}
								}
							}
						}
					}
				}
				JOINT RightCollar
				{
					OFFSET 0 0 0
					CHANNELS 3 Zrotation Yrotation Xrotation
					JOINT RightShoulder
					{
						OFFSET -2.60909 1.35448 0.21802
CHANNELS 3 Zrotation Xrotation Yrotation
						JOINT RightElbow
						{
OFFSET 0 -4.521720 -0.000000
CHANNELS 3 Zrotation Xrotation Yrotation
							JOINT RightWrist
							{
OFFSET 0 -2.891400 0.000000
CHANNELS 3 Zrotation Xrotation Yrotation
								JOINT rhand
								{
									OFFSET 0 0 0
CHANNELS 3 Zrotation Xrotation Yrotation
									JOINT RFingers
									{
OFFSET 0 -0.680540 0.000000
CHANNELS 3 Zrotation Xrotation Yrotation
										End Site
										{
OFFSET 0 -0.548670 0.000000
										}
									}
								}
								JOINT RThumb
								{
OFFSET 0 0.000000 0.000000
CHANNELS 3 Zrotation Xrotation Yrotation
									End Site
									{
OFFSET 0 -0.557050 0.557050
									}
								}
							}
						}
					}
				}
			}
		}
	}
}
MOTION
Frames: 12
Frame Time: 0.008333333333333333
8.701300 15.044900 42.057000 -178.288000 -2.657900 175.221000 0.000000 0.000000 0.000000 -26.361000 -25.378400 4.605100 3.003500 10.700700 31.276900 1.949800 10.398200 -31.826200 3.556100 -11.545000 -34.140900 0.000000 0.000000 0.000000 29.683100 19.533600 7.503700 -2.105200 -9.081800 26.051600 0.350700 -24.647300 -32.537100 -0.047800 1.410800 -3.879800 3.420300 0.192200 12.041200 -0.775100 0.703300 -4.767200 -2.931800 0.010100 -11.953000 -7.952100 -2.668000 -10.057300 9.194700 -3.750400 10.987400 3.900900 -1.638000 5.272700 -0.000000 -0.000000 0.000000 9.061100 17.820200 -45.325600 15.740600 -25.167700 3.534900 3.247000 20.526800 20.743400 0.000000 0.000000 0.000000 -7.125000 0.000000 0.000000 -16.063200 9.825500 -13.648600 -0.000000 -0.000000 0.000000 -7.816300 15.832300 52.159400 -18.813200 -29.186000 -4.939400 50.042900 14.725500 20.453400 0.000000 0.000000 0.000000 7.125000 0.000000 -0.000000 57.711200 39.613800 13.852900
8.707206 15.141660 42.031396 -179.425890 -0.558939 178.948925 0.000000 0.000000 0.000000 -26.101052 -26.425501 1.978425 2.587964 9.995776 28.963324 1.742003 11.581347 -31.417214 2.471064 -9.784060 -28.281123 0.000000 0.000000 0.000000 26.689465 21.614845 3.020025 -2.220047 -9.309078 26.767849 -0.328233 -22.361462 -33.580015 -0.010457 0.648970 -1.783557 0.312015 1.003374 6.563347 0.049839 1.269758 -4.711743 -0.291988 0.554144 -8.653468 -7.844161 -2.406788 -10.392183 7.867847 -3.060757 9.765718 3.508013 -1.339963 4.870954 0.000000 0.000000 0.000000 6.677037 15.572524 -43.727216 16.498341 -26.191755 3.863268 -1.623092 16.666355 35.272884 0.000000 0.000000 0.000000 -7.125000 0.000000 0.000000 -18.669197 -3.706560 -20.954964 0.000000 0.000000 0.000000 -9.866259 14.096402 53.779640 -18.953391 -29.360610 -5.007988 49.278923 13.305315 21.002082 0.000000 0.000000 0.000000 7.125000 0.000000 0.000000 58.302242 40.389805 11.929578
8.702872 15.155827 42.043360 -178.325766 -0.554864 179.613444 0.000000 0.000000 0.000000 -24.450022 -26.846401 0.551346 2.774306 10.320411 30.020733 1.815877 11.218472 -31.596763 2.638379 -10.085228 -29.253264 0.000000 0.000000 0.000000 27.614918 21.784330 2.995688 -1.957491 -8.776882 25.099944 -0.166102 -22.300878 -32.509039 -0.003899 0.405503 -1.114234 1.488214 1.122611 6.367951 0.123221 1.536874 -5.089929 -0.909971 0.601299 -8.919541 -7.123219 -2.510691 -10.105954 7.340762 -3.259221 9.622534 3.208589 -1.448823 4.775008 0.000000 0.000000 0.000000 6.567416 15.648085 -42.925175 16.517634 -26.217506 3.871775 -2.870713 19.274005 36.319971 0.000000 0.000000 0.000000 -7.125000 0.000000 0.000000 -19.323156 -4.611513 -22.063928 0.000000 0.000000 0.000000 -9.292865 14.376880 53.566130 -18.935679 -29.338600 -4.999243 48.869829 11.390736 22.415249 0.000000 0.000000 0.000000 7.125000 0.000000 0.000000 59.842632 41.802209 8.539926
8.705638 15.163328 42.050055 -178.310254 -0.682603 179.929157 0.000000 0.000000 0.000000 -24.247139 -27.070237 0.228435 2.762692 10.300650 29.955877 1.802536 11.312737 -31.584840 2.409062 -9.670701 -27.916830 0.000000 0.000000 0.000000 27.524252 21.868331 2.653214 -1.955996 -8.773789 25.090320 -0.140065 -22.616308 -32.762886 -0.000696 0.172303 -0.473376 1.404920 1.118081 6.216081 0.142457 1.506761 -5.278370 -0.836489 0.583583 -9.038814 -7.030307 -2.511789 -9.751310 7.122110 -3.257977 9.422861 3.126488 -1.463722 4.649192 0.000000 0.000000 0.000000 6.000725 15.565857 -41.853280 16.328439 -25.963932 3.788598 -5.760826 21.156993 36.158743 0.000000 0.000000 0.000000 -7.125000 0.000000 0.000000 -20.788192 -4.303566 -23.868240 0.000000 0.000000 0.000000 -9.241424 14.434749 53.751117 -18.713633 -29.061301 -4.891008 48.339412 9.904722 23.459792 0.000000 0.000000 0.000000 7.125000 0.000000 0.000000 60.960014 42.841771 5.875164
8.702981 15.164591 42.046863 -178.299467 -0.779816 179.945995 0.000000 0.000000 0.000000 -24.364442 -27.405401 0.441635 2.753614 10.285026 29.904786 1.847468 11.310246 -31.856432 2.588566 -9.997022 -28.967138 0.000000 0.000000 0.000000 27.507003 21.806292 2.633582 -1.953607 -8.768704 25.074492 -0.149399 -22.385655 -32.515875 -0.004056 0.411047 -1.129408 1.359423 1.108559 6.041550 0.115420 1.481718 -5.277000 -0.832197 0.573676 -8.934997 -6.210604 -2.544729 -9.284524 6.146904 -3.302988 8.998930 2.687408 -1.517107 4.415373 0.000000 0.000000 0.000000 6.077129 15.739422 -41.735121 16.419027 -26.085463 3.828330 -7.639286 21.857420 35.538558 0.000000 0.000000 0.000000 -7.125000 0.000000 0.000000 -21.743920 -3.646748 -24.900279 0.000000 0.000000 0.000000 -9.079439 14.554444 53.530041 -18.578207 -28.891114 -4.825299 46.699459 9.426652 24.310768 0.000000 0.000000 0.000000 7.125000 0.000000 0.000000 61.596310 43.908637 2.952669
8.704918 15.164059 42.050129 -178.154646 -0.775113 179.870574 0.000000 0.000000 0.000000 -24.159782 -27.236912 0.374472 2.764259 10.303295 29.964645 1.857983 11.299393 -31.912626 2.625492 -10.062578 -29.179665 0.000000 0.000000 0.000000 27.720239 21.829794 2.786895 -1.930594 -8.720041 24.923418 -0.043398 -22.802996 -32.408563 -0.003947 0.404795 -1.112314 1.395118 1.101017 6.062138 0.167917 1.484124 -5.209087 -0.797060 0.577535 -8.873528 -5.671462 -2.528570 -8.816275 5.399434 -3.259966 8.395541 2.375117 -1.521161 4.129853 0.000000 0.000000 0.000000 6.446226 15.685903 -42.392439 16.256751 -25.867522 3.757354 -8.829894 22.165924 35.797454 0.000000 0.000000 0.000000 -7.125000 0.000000 0.000000 -22.330648 -3.859158 -25.768638 0.000000 0.000000 0.000000 -9.182702 14.515947 54.136867 -18.632635 -28.959613 -4.851679 45.172625 7.605614 25.861712 0.000000 0.000000 0.000000 7.125000 0.000000 0.000000 62.883317 45.399519 -1.087762
8.702332 15.168096 42.052961 -178.516492 -0.681842 179.994070 0.000000 0.000000 0.000000 -24.492428 -27.156148 0.320087 2.720418 10.228128 29.718498 1.884060 10.930199 -31.803506 2.396550 -9.647228 -27.841682 0.000000 0.000000 0.000000 27.266907 21.992981 2.571811 -1.969021 -8.801149 25.175254 -0.106256 -22.848010 -32.862037 -0.006149 0.503712 -1.384023 1.056488 1.167529 5.730857 0.058297 1.528006 -5.121547 -0.720943 0.620714 -8.587183 -5.525825 -2.536161 -8.271494 5.215152 -3.270005 7.802384 2.300030 -1.536846 3.854471 0.000000 0.000000 0.000000 7.054404 15.488807 -43.275395 16.175385 -25.757866 3.721804 -8.715193 21.401032 36.199388 0.000000 0.000000 0.000000 -7.125000 0.000000 0.000000 -22.262980 -4.238538 -25.816750 0.000000 0.000000 0.000000 -9.233580 14.366366 54.517548 -18.666956 -29.002769 -4.868335 44.293734 6.587645 26.959736 0.000000 0.000000 0.000000 7.125000 0.000000 0.000000 63.795330 46.354056 -3.715961
8.701567 15.171049 42.060508 -178.430913 -0.679655 179.994818 0.000000 0.000000 0.000000 -24.337391 -27.165278 0.247704 2.718161 10.224163 29.705777 1.836269 11.099024 -31.634646 2.351384 -9.562499 -27.571344 0.000000 0.000000 0.000000 27.384696 22.104007 2.593121 -1.967008 -8.797016 25.162449 -0.113511 -22.647497 -32.639632 -0.000475 0.139011 -0.381956 1.110150 1.148064 5.884975 0.126801 1.513634 -5.163948 -0.680511 0.610644 -8.724995 -5.747484 -2.479607 -8.204551 5.434274 -3.194524 7.818854 2.408733 -1.497148 3.851237 0.000000 0.000000 0.000000 7.761185 15.326499 -44.032806 16.227517 -25.828210 3.744534 -11.784473 21.908280 35.874100 0.000000 0.000000 0.000000 -7.125000 0.000000 0.000000 -23.780897 -3.897934 -27.783319 0.000000 0.000000 0.000000 -9.396891 14.356984 54.926305 -18.683758 -29.023838 -4.876444 43.840460 5.794274 27.671769 0.000000 0.000000 0.000000 7.125000 0.000000 0.000000 64.413152 46.929377 -5.329681
8.693474 15.167893 42.056116 -178.501953 -0.351065 179.820155 0.000000 0.000000 0.000000 -24.652968 -27.232708 0.686062 2.703135 10.198283 29.621226 1.930537 10.985818 -32.123190 2.315853 -9.495011 -27.356436 0.000000 0.000000 0.000000 27.406058 22.320237 2.901964 -1.969606 -8.802388 25.179102 -0.087857 -22.781499 -32.658679 -0.005709 0.487419 -1.339421 1.146282 1.244666 5.975291 0.101279 1.645435 -5.198676 -0.747754 0.670124 -8.811912 -5.374421 -2.532094 -7.556056 4.801753 -3.268161 7.317948 2.384729 -1.577835 3.959090 0.000000 0.000000 0.000000 7.859314 15.348083 -42.972822 16.017561 -25.544422 3.653562 -13.519512 23.233155 35.556254 0.000000 0.000000 0.000000 -7.125000 0.000000 0.000000 -24.636042 -3.613416 -28.881177 0.000000 0.000000 0.000000 -9.296775 14.511219 55.172465 -18.679618 -29.018587 -4.874399 42.730072 3.685807 29.652382 0.000000 0.000000 0.000000 7.125000 0.000000 0.000000 66.157910 48.432707 -9.651259
8.688495 15.175368 42.056700 -178.248977 -0.414463 180.119853 0.000000 0.000000 0.000000 -24.250205 -27.629777 0.325333 2.739789 10.261365 29.827424 1.952589 11.282580 -32.466844 2.444083 -9.735452 -28.124344 0.000000 0.000000 0.000000 27.560129 22.430564 2.742010 -1.919309 -8.695946 24.848739 -0.031790 -22.886663 -32.448968 -0.008876 0.605794 -1.664679 1.575854 1.299456 5.785728 0.059263 1.736192 -5.435408 -1.041887 0.673894 -8.942854 -5.419824 -2.652635 -7.230019 4.957297 -3.474934 7.643836 2.311947 -1.674625 3.817705 0.000000 0.000000 0.000000 8.452901 15.399214 -43.183282 15.984882 -25.500166 3.639473 -13.197602 23.065854 36.659148 0.000000 0.000000 0.000000 -7.125000 0.000000 0.000000 -24.424187 -4.638099 -28.996797 0.000000 0.000000 0.000000 -9.077151 14.773922 55.151846 -18.611225 -28.932707 -4.841317 41.865116 3.271232 30.473265 0.000000 0.000000 0.000000 7.125000 0.000000 0.000000 66.660519 49.097454 -11.485123
8.685188 15.171355 42.056171 -178.052097 -0.575949 179.922775 0.000000 0.000000 0.000000 -24.076268 -27.572979 0.374447 2.783072 10.335409 30.069820 2.093029 10.504735 -32.750736 2.503127 -9.843596 -28.471628 0.000000 0.000000 0.000000 27.898128 22.349472 3.169824 -1.876680 -8.604402 24.565376 0.124947 -23.447197 -32.232663 -0.005424 0.477106 -1.311088 1.721392 1.238162 5.659592 0.191084 1.681325 -5.303051 -0.972450 0.649257 -8.725528 -5.456197 -2.631601 -6.795191 4.762412 -3.427863 7.148409 2.389490 -1.672742 3.779333 0.000000 0.000000 0.000000 8.862589 15.781736 -43.579735 16.267510 -25.882015 3.761974 -16.042979 23.644683 35.644738 0.000000 0.000000 0.000000 -7.125000 0.000000 0.000000 -25.832522 -3.758862 -30.688867 0.000000 0.000000 0.000000 -9.232752 14.810752 55.460974 -18.627504 -28.953241 -4.849217 40.764552 2.834756 31.311148 0.000000 0.000000 0.000000 7.125000 0.000000 0.000000 67.024957 49.800826 -13.333151
8.684608 15.169210 42.054500 -178.196407 -0.755055 179.924780 0.000000 0.000000 0.000000 -24.247456 -27.596987 0.451091 2.754024 10.285797 29.907256 2.055223 10.631555 -32.615488 2.565422 -9.954281 -28.830180 0.000000 0.000000 0.000000 27.830522 22.641485 3.274515 -1.904492 -8.664200 24.750379 0.046743 -23.619395 -32.964926 -0.008588 0.581897 -1.599034 1.467783 1.186779 5.593408 0.258296 1.592114 -5.275273 -0.746060 0.625359 -8.667272 -5.462994 -2.691512 -6.293552 4.564187 -3.490769 6.594007 2.316993 -1.712405 3.484606 0.000000 0.000000 0.000000 9.339149 16.421078 -45.063771 16.533259 -26.238192 3.878894 -14.729214 22.746897 36.692589 0.000000 0.000000 0.000000 -7.125000 0.000000 0.000000 -25.148337 -4.695578 -30.076617 0.000000 0.000000 0.000000 -9.555370 14.862207 56.210647 -18.734806 -29.087772 -4.901249 38.878321 1.208439 33.049925 0.000000 0.000000 0.000000 7.125000 0.000000 0.000000 67.916829 51.162365 -16.921471
